<?xml version="1.0" encoding="utf-8"?>
<!-- Generator: Adobe Illustrator 23.0.0, SVG Export Plug-In . SVG Version: 6.00 Build 0)  -->
<svg version="1.1" id="Layer_1" xmlns="http://www.w3.org/2000/svg" xmlns:xlink="http://www.w3.org/1999/xlink" x="0px" y="0px"
	 viewBox="0 0 122 122" style="enable-background:new 0 0 122 122;" xml:space="preserve">
<style type="text/css">
	.st0{opacity:0.1;fill:url(#SVGID_1_);enable-background:new    ;}
	.st1{display:none;fill:none;}
	.st2{display:none;fill:#00FFFF;}
	.st3{fill:#00FFFF;}
	.st4{display:none;opacity:0.5;fill:#FE9457;enable-background:new    ;}
	.st5{opacity:0.5;fill:#FE9457;enable-background:new    ;}
</style>
<linearGradient id="SVGID_1_" gradientUnits="userSpaceOnUse" x1="60.9981" y1="681.9764" x2="60.9981" y2="789.9764" gradientTransform="matrix(1 0 0 1 0 -668)">
	<stop  offset="0.1" style="stop-color:#19191B;stop-opacity:0"/>
	<stop  offset="1" style="stop-color:#19191B"/>
</linearGradient>
<path class="st0" d="M58.9,14C30,14.8,6,31.5,3.3,52.9C2.7,57.2,3,61.3,4.1,65.3c0,0,0.1,0.5,0.4,1.4c0.9,3,2.2,5.8,3.9,8.5
	c5.8,10.2,19.3,27.3,49.4,46c1.8,1.2,4.6,1.2,6.4,0c30.2-18.6,43.6-35.7,49.5-46c1.7-2.7,3-5.6,3.9-8.5c0.3-0.9,0.4-1.4,0.4-1.4
	c0.7-2.7,1-5.4,1-8.2C119,32.8,91.9,13.2,58.9,14z M61,78.5c-15.6,0-28.2-9.4-28.2-20.9S45.4,36.7,61,36.7S89.2,46,89.2,57.6
	S76.6,78.5,61,78.5z"/>
<g>
	<ellipse class="st1" cx="61" cy="49.2" rx="23.6" ry="23.6"/>
	<path class="st2" d="M37.4,49.2C37.4,36.1,48,25.6,61,25.6l0,0C47.9,25.6,37.4,36.2,37.4,49.2C37.4,62.3,48,72.8,61,72.8l0,0
		C47.9,72.9,37.4,62.3,37.4,49.2z"/>
	<path class="st3" d="M59.3,0C35,0.9,14.9,19.8,12.6,43.9c-0.5,4.8-0.2,9.5,0.7,14c0,0,0.1,0.5,0.3,1.5c0.8,3.4,1.9,6.6,3.3,9.7
		C21.7,80.7,33,100,58.3,121c1.6,1.3,3.8,1.3,5.4,0c25.3-21,36.6-40.3,41.5-52c1.4-3.1,2.5-6.3,3.3-9.7c0.2-1,0.3-1.5,0.3-1.5
		c0.6-3,0.9-6.1,0.9-9.2C109.7,21.2,86.9-0.9,59.3,0z M61,81c-17.7,0-32-14.3-32-32s14.3-32,32-32s32,14.3,32,32S78.7,81,61,81z"/>
	<path class="st4" d="M61,25.6L61,25.6c13.1,0,23.6,10.6,23.6,23.6C84.6,62.3,74,72.9,61,72.9l0,0c13.1,0,23.6-10.6,23.6-23.6
		C84.6,36.2,74,25.6,61,25.6z"/>
	<path class="st2" d="M61,17c-17.7,0-32,14.3-32,32s14.3,32,32,32s32-14.3,32-32S78.7,17,61,17z M61,72.9L61,72.9L61,72.9
		c-13.1,0-23.6-10.6-23.6-23.6C37.4,36.2,48,25.7,61,25.7l0,0l0,0c13.1,0,23.6,10.6,23.6,23.6S74,72.9,61,72.9z"/>
	<path class="st5" d="M61,17c-17.7,0-32,14.3-32,32s14.3,32,32,32s32-14.3,32-32S78.7,17,61,17z M61,72.9L61,72.9L61,72.9
		c-13.1,0-23.6-10.6-23.6-23.6C37.4,36.2,48,25.7,61,25.7l0,0l0,0c13.1,0,23.6,10.6,23.6,23.6S74,72.9,61,72.9z"/>
</g>
</svg>
